<svg width="21" height="20" viewBox="0 0 21 20" fill="none" xmlns="http://www.w3.org/2000/svg">
<path opacity="0.8" fill-rule="evenodd" clip-rule="evenodd" d="M10.5 0C4.986 0 0.5 4.486 0.5 10C0.5 15.5138 4.986 20 10.5 20C16.014 20 20.5 15.5138 20.5 10C20.5 4.486 16.014 0 10.5 0V0ZM11.3064 13.6452H9.6936V18.3476C5.7114 17.9658 2.5342 14.7886 2.1526 10.8064H6.855V9.1936H2.1526C2.5344 5.2114 5.7114 2.0344 9.6936 1.6526V6.3548H11.3064V1.6526C15.2886 2.0342 18.4658 5.2112 18.8474 9.1936H14.1452V10.8064H18.8476C18.4658 14.7886 15.2886 17.9658 11.3064 18.3474V13.6452Z" fill="#431C5D"/>
</svg>
